<svg xmlns="http://www.w3.org/2000/svg" xmlns:xlink="http://www.w3.org/1999/xlink" width="70" height="70" viewBox="0 0 70 70">
  <defs>
    <linearGradient id="linear-gradient" x1="0.5" x2="0.5" y2="1" gradientUnits="objectBoundingBox">
      <stop offset="0" stop-color="#fed65e"/>
      <stop offset="1" stop-color="#ff5a71"/>
    </linearGradient>
    <clipPath id="clip-path">
      <rect id="Rectangle_8" data-name="Rectangle 8" width="70" height="70" transform="translate(155 80)" stroke="#707070" stroke-width="1" fill="url(#linear-gradient)"/>
    </clipPath>
  </defs>
  <g id="icon" transform="translate(-155 -80)" clip-path="url(#clip-path)">
    <path id="Path_30" data-name="Path 30" d="M222.321,109.454h-1.249a31.723,31.723,0,0,0-62.442.137H157.4a2.544,2.544,0,0,0-2.542,2.542v9.238a2.545,2.545,0,0,0,2.542,2.543h1.983a31.714,31.714,0,0,0,9.818,15.286,1.026,1.026,0,1,0,1.338-1.557,29.748,29.748,0,0,1-3.383-3.419,39.218,39.218,0,0,1,4.787-1.654,34.107,34.107,0,0,0,2.581,3.906A40.012,40.012,0,0,0,181.5,143.6a29.383,29.383,0,0,1-6.02-2.514,1.027,1.027,0,0,0-1,1.8,31.743,31.743,0,0,0,45.856-18.916h1.984a2.544,2.544,0,0,0,2.542-2.542V112A2.545,2.545,0,0,0,222.321,109.454Zm-3.339,0h-7.141c-.085-.532-.18-1.064-.29-1.6a36.127,36.127,0,0,0-2.844-8.41c.189-.052.379-.1.567-.156a39.1,39.1,0,0,0,4.6-1.581A29.349,29.349,0,0,1,218.982,109.454Zm-9.2.137H199.177c-.035-.515-.073-1.03-.119-1.543-.2-2.3-.5-4.52-.89-6.646a66.591,66.591,0,0,0,8.51-1.432,34.061,34.061,0,0,1,2.863,8.305C209.632,108.713,209.711,109.152,209.784,109.591Zm1.054-15.433q.907.907,1.724,1.877a39.591,39.591,0,0,1-3.852,1.284c-.322.092-.645.18-.97.266A36.042,36.042,0,0,0,205.6,94.2a35.261,35.261,0,0,0-7.242-7.5A29.514,29.514,0,0,1,210.838,94.158Zm-17.809-8.52a33.362,33.362,0,0,1,10.9,9.753q.939,1.316,1.741,2.705a64.9,64.9,0,0,1-7.9,1.283,42.225,42.225,0,0,0-5.242-13.79Q192.777,85.612,193.029,85.639Zm-3.166-.168h.075c2.494,3.291,4.488,8.208,5.773,14.087q-3.289.237-6.735.189c-1.559-.022-3.227-.071-4.963-.177,1.285-5.885,3.28-10.806,5.776-14.1Zm-2.661.119a42.279,42.279,0,0,0-5.251,13.829,58.893,58.893,0,0,1-7.959-1.209q.832-1.447,1.808-2.819a33.374,33.374,0,0,1,10.9-9.753Q186.95,85.612,187.2,85.59Zm-5.651,15.855c-.383,2.113-.681,4.322-.883,6.6-.045.513-.083,1.028-.118,1.543H169.942c.073-.439.153-.878.243-1.316a34.124,34.124,0,0,1,2.807-8.19A59.563,59.563,0,0,0,181.551,101.445Zm-12.662-7.287a29.514,29.514,0,0,1,12.483-7.46,35.242,35.242,0,0,0-7.243,7.5,35.972,35.972,0,0,0-2.2,3.493,39.291,39.291,0,0,1-4.77-1.649Q167.979,95.071,168.889,94.158Zm-3.042,3.556a40.666,40.666,0,0,0,5.123,1.838,36.182,36.182,0,0,0-2.795,8.307q-.179.864-.312,1.732h-7.145A29.344,29.344,0,0,1,165.847,97.714ZM157.4,121.861a.491.491,0,0,1-.489-.49v-9.238a.49.49,0,0,1,.489-.489h29.63a1.026,1.026,0,0,0,0-2.053h-4.428c.032-.454.066-.909.106-1.362.2-2.3.505-4.514.894-6.626,1.872.12,3.667.173,5.339.2q.607.009,1.212.009,3.037,0,5.959-.223c.39,2.117.692,4.34.9,6.643.04.453.076.908.108,1.362h-3.677a1.026,1.026,0,1,0,0,2.053h15.921V121.86H157.4Zm51.714,2.052a32.691,32.691,0,0,1-2.447,6.382,66.37,66.37,0,0,0-8.494-1.431c.3-1.6.537-3.26.724-4.95h10.217Zm-12.28,0c-.186,1.63-.424,3.224-.713,4.769q-3.506-.267-7.18-.216c-1.676.024-3.473.078-5.349.2-.287-1.539-.524-3.126-.709-4.751Zm-30.986,8.637a29.648,29.648,0,0,1-4.323-8.637h6.96a34.759,34.759,0,0,0,2.479,6.8A40.671,40.671,0,0,0,165.853,132.55Zm4.757-8.637h10.213c.186,1.677.426,3.318.718,4.91A59.73,59.73,0,0,0,173,130.18,32.661,32.661,0,0,1,170.61,123.913Zm16.078,20.709a35.484,35.484,0,0,1-10.528-9.393,31.9,31.9,0,0,1-2.14-3.179,58.961,58.961,0,0,1,7.925-1.2,52.7,52.7,0,0,0,1.442,5.327,40.1,40.1,0,0,0,3.83,8.5C187.04,144.66,186.864,144.641,186.688,144.622Zm3.175.174h-.074a33.054,33.054,0,0,1-4.453-9.265c-.505-1.525-.945-3.145-1.322-4.834,1.736-.106,3.4-.155,4.962-.177q3.444-.05,6.734.19c-.376,1.685-.816,3.3-1.319,4.821a33.055,33.055,0,0,1-4.453,9.265Zm2.645-.117a40.059,40.059,0,0,0,3.831-8.5,52.657,52.657,0,0,0,1.433-5.287,64.792,64.792,0,0,1,7.867,1.275,32.061,32.061,0,0,1-2.072,3.066,35.519,35.519,0,0,1-10.539,9.4C192.855,144.647,192.682,144.663,192.508,144.679Zm18.33-8.571a29.5,29.5,0,0,1-12.628,7.5,39.994,39.994,0,0,0,6.987-7.134,33.777,33.777,0,0,0,2.521-3.8q.5.132.992.272a39.782,39.782,0,0,1,3.849,1.283C212.014,134.876,211.443,135.5,210.838,136.108Zm3.038-3.554a38.917,38.917,0,0,0-4.6-1.58c-.188-.054-.378-.1-.567-.156a34.848,34.848,0,0,0,2.518-6.858h6.966A29.344,29.344,0,0,1,213.876,132.554Zm8.934-11.183a.49.49,0,0,1-.489.49h-10.9V111.644h10.9a.49.49,0,0,1,.489.489Z" stroke="#707070" stroke-width="1" fill="url(#linear-gradient)"/>
    <path id="Path_31" data-name="Path 31" d="M181.214,116.363a.525.525,0,0,1-.508.516.517.517,0,0,1-.516-.516.512.512,0,0,1,.516-.515A.519.519,0,0,1,181.214,116.363Zm0,2.215a.525.525,0,0,1-.508.516.516.516,0,1,1,.508-.516Z" fill="#a9afc3" stroke="#707070" stroke-width="1"/>
    <path id="Path_32" data-name="Path 32" d="M203.643,118.957c-.053.129-.219.174-.386.174-.19,0-.357-.06-.4-.174l-.583-1.654-.577,1.646c-.046.122-.228.182-.417.182a.378.378,0,0,1-.379-.182l-1.168-2.995a.3.3,0,0,1-.038-.144c0-.235.379-.4.637-.4a.279.279,0,0,1,.281.16l.758,2.153.569-1.873c.053-.174.181-.2.333-.2s.281.023.334.2l.561,1.881.767-2.161a.28.28,0,0,1,.28-.16c.242,0,.63.167.63.41a.281.281,0,0,1-.031.137Z" fill="#a9afc3" stroke="#707070" stroke-width="1"/>
    <path id="Path_33" data-name="Path 33" d="M197.931,118.957c-.053.129-.219.174-.386.174-.19,0-.357-.06-.4-.174l-.584-1.654-.577,1.646c-.045.122-.227.182-.417.182a.378.378,0,0,1-.379-.182l-1.168-2.995a.3.3,0,0,1-.038-.144c0-.235.379-.4.637-.4a.279.279,0,0,1,.281.16l.758,2.153.569-1.873c.053-.174.182-.2.334-.2s.28.023.333.2l.561,1.881.767-2.161a.281.281,0,0,1,.28-.16c.243,0,.63.167.63.41a.281.281,0,0,1-.031.137Z" fill="#a9afc3" stroke="#707070" stroke-width="1"/>
    <path id="Path_34" data-name="Path 34" d="M192.22,118.957c-.053.129-.22.174-.386.174-.19,0-.357-.06-.4-.174l-.584-1.654-.576,1.646c-.046.122-.228.182-.417.182-.159,0-.327-.045-.379-.182l-1.168-2.995a.3.3,0,0,1-.038-.144c0-.235.379-.4.637-.4a.276.276,0,0,1,.28.16l.759,2.153.568-1.873c.054-.174.182-.2.334-.2s.281.023.334.2l.561,1.881.766-2.161a.282.282,0,0,1,.281-.16c.242,0,.63.167.63.41a.281.281,0,0,1-.031.137Z" fill="#a9afc3" stroke="#707070" stroke-width="1"/>
    <path id="Path_35" data-name="Path 35" d="M178.339,118.047c0-.667-1.8-.25-1.8-1.517,0-.538.341-1.13,1.357-1.13.615,0,1.206.213,1.206.493,0,.137-.128.47-.356.47-.182,0-.417-.22-.834-.22-.379,0-.531.19-.531.342,0,.554,1.82.174,1.82,1.524,0,.675-.5,1.108-1.395,1.108-.774,0-1.373-.319-1.373-.653,0-.159.136-.432.326-.432.22,0,.387.341,1.024.341C178.233,118.373,178.339,118.2,178.339,118.047Z" fill="#a9afc3" stroke="#707070" stroke-width="1"/>
    <path id="Path_36" data-name="Path 36" d="M173.174,115.749v.227a1.192,1.192,0,0,1,1.024-.576,1.457,1.457,0,0,1,1.357,1.54v.621a1.506,1.506,0,0,1-1.327,1.556,1.127,1.127,0,0,1-.993-.6v1.9c0,.159-.228.311-.5.311s-.477-.152-.477-.311v-4.664c0-.182.2-.3.462-.3S173.174,115.567,173.174,115.749Zm1.4,1.191a.712.712,0,0,0-.69-.683.664.664,0,0,0-.652.683v.758a.737.737,0,0,0,.667.561.722.722,0,0,0,.675-.7Z" fill="#a9afc3" stroke="#707070" stroke-width="1"/>
    <path id="Path_37" data-name="Path 37" d="M170.133,117.819c0,.3.105.4.424.4h.3a.414.414,0,1,1,0,.827h-.3c-.91,0-1.4-.372-1.4-1.229v-3.678c0-.182.258-.3.486-.3.25,0,.493.121.493.3v1.3h.9c.159,0,.25.183.25.357s-.091.356-.25.356h-.9Z" fill="#a9afc3" stroke="#707070" stroke-width="1"/>
    <path id="Path_38" data-name="Path 38" d="M167.045,117.819c0,.3.106.4.425.4h.3a.414.414,0,1,1,0,.827h-.3c-.91,0-1.4-.372-1.4-1.229v-3.678c0-.182.258-.3.486-.3.25,0,.493.121.493.3v1.3h.895c.159,0,.25.183.25.357s-.091.356-.25.356h-.895v1.661Z" fill="#a9afc3" stroke="#707070" stroke-width="1"/>
    <path id="Path_39" data-name="Path 39" d="M162.631,118.737c0,.152-.228.311-.493.311-.288,0-.486-.159-.486-.311v-5.089c0-.182.2-.3.486-.3.265,0,.493.122.493.3v2.328a1.041,1.041,0,0,1,.956-.576,1.459,1.459,0,0,1,1.3,1.54v1.8c0,.205-.25.311-.493.311-.228,0-.486-.106-.486-.311v-1.8a.7.7,0,0,0-.659-.683.645.645,0,0,0-.622.683v1.8Z" fill="#a9afc3" stroke="#707070" stroke-width="1"/>
    <path id="Path_40" data-name="Path 40" d="M185.545,113.542a.293.293,0,0,1-.031.136l-2.722,5.507a.331.331,0,0,1-.3.167.354.354,0,0,1-.364-.334.252.252,0,0,1,.038-.129l2.722-5.529a.3.3,0,0,1,.274-.159A.367.367,0,0,1,185.545,113.542Z" fill="#a9afc3" stroke="#707070" stroke-width="1"/>
    <path id="Path_41" data-name="Path 41" d="M187.836,113.542a.3.3,0,0,1-.03.136l-2.724,5.507a.327.327,0,0,1-.295.167.354.354,0,0,1-.364-.334.252.252,0,0,1,.038-.129l2.722-5.529a.3.3,0,0,1,.274-.159A.368.368,0,0,1,187.836,113.542Z" fill="#a9afc3" stroke="#707070" stroke-width="1"/>
    <path id="Path_42" data-name="Path 42" d="M220.1,114.563l-1.107-.161-.5-1a1.54,1.54,0,0,0-2.762,0l-.495,1-1.107.161a1.54,1.54,0,0,0-.853,2.627l.8.78-.189,1.1a1.54,1.54,0,0,0,2.234,1.624l.99-.521.99.521a1.551,1.551,0,0,0,.719.178,1.544,1.544,0,0,0,1.516-1.8l-.189-1.1.8-.78a1.54,1.54,0,0,0-.854-2.627Zm-1.573,2.126a1.539,1.539,0,0,0-.443,1.363l.059.344-.309-.162a1.539,1.539,0,0,0-1.433,0l-.31.162.059-.344a1.539,1.539,0,0,0-.443-1.363l-.25-.244.346-.051a1.539,1.539,0,0,0,1.16-.842l.154-.313.155.313a1.536,1.536,0,0,0,1.16.842l.345.051Z" fill="#a9afc3" stroke="#707070" stroke-width="1"/>
  </g>
</svg>
