<svg xmlns="http://www.w3.org/2000/svg" xmlns:xlink="http://www.w3.org/1999/xlink" width="70" height="70" viewBox="0 0 70 70">
  <defs>
    <linearGradient id="linear-gradient" x1="0.5" x2="0.5" y2="1" gradientUnits="objectBoundingBox">
      <stop offset="0" stop-color="#fed65e"/>
      <stop offset="1" stop-color="#ff5a71"/>
    </linearGradient>
    <clipPath id="clip-path">
      <rect id="Rectangle_6" data-name="Rectangle 6" width="70" height="70" transform="translate(155 80)" fill="url(#linear-gradient)"/>
    </clipPath>
  </defs>
  <g id="icon" transform="translate(-155 -80)" clip-path="url(#clip-path)">
    <path id="Path_24" data-name="Path 24" d="M215.161,80h-3.009a1.026,1.026,0,0,0,0,2.051h3.009a5.633,5.633,0,0,1,5.637,5.616V111.4a5.634,5.634,0,0,1-5.637,5.617h-3.413a1.025,1.025,0,0,0-.623.211l-6.264,4.791v-3.976a1.025,1.025,0,0,0-1.025-1.026H191.354a5.611,5.611,0,0,1-2.871-.783V104.723a6.257,6.257,0,0,0-2.766-5.189V87.668a5.633,5.633,0,0,1,5.637-5.616h14.371a1.026,1.026,0,0,0,0-2.051H191.354a7.687,7.687,0,0,0-7.688,7.668V98.633a6.286,6.286,0,0,0-1.462-.173H163.43a6.278,6.278,0,0,0-6.279,6.263v2.214a1.026,1.026,0,0,0,2.051,0v-2.214a4.225,4.225,0,0,1,4.228-4.212H182.2a4.224,4.224,0,0,1,4.228,4.212v11.921a1.068,1.068,0,0,0,0,.271v6.524c0,.129-.007.258-.019.385H184.3a4.758,4.758,0,0,0-4.676,3.893,1.028,1.028,0,0,0-.266.148l-4.587,3.542v-2.73a1.026,1.026,0,0,0-1.025-1.026H163.43a4.225,4.225,0,0,1-4.228-4.212V113.091a1.026,1.026,0,0,0-2.051,0v10.348a6.279,6.279,0,0,0,6.279,6.264h9.288v3.791a1.041,1.041,0,0,0,1.653.812l5.173-3.994v11.537a4.754,4.754,0,0,0,4.754,4.743h6.294v2.393a1.041,1.041,0,0,0,1.652.811l4.151-3.2h1.226a4.754,4.754,0,0,0,4.754-4.743v-1.821a1.026,1.026,0,0,0-2.051,0v1.821a2.7,2.7,0,0,1-2.7,2.691h-1.576a1.031,1.031,0,0,0-.627.214l-2.775,2.143v-1.331a1.026,1.026,0,0,0-1.026-1.026H184.3a2.7,2.7,0,0,1-2.7-2.691V128.567a2.7,2.7,0,0,1,2.7-2.692h13.323a2.7,2.7,0,0,1,2.7,2.692V133.6a1.026,1.026,0,0,0,2.051,0v-5.035a4.753,4.753,0,0,0-4.754-4.742h-9.149c.008-.129.012-5.308.012-5.308a7.682,7.682,0,0,0,2.87.552H202.81V124.1a1.041,1.041,0,0,0,1.649.814l7.636-5.841h3.066a7.686,7.686,0,0,0,7.688-7.667V87.668A7.687,7.687,0,0,0,215.161,80Z" fill="url(#linear-gradient)"/>
    <path id="Path_25" data-name="Path 25" d="M190.947,131.167a3.447,3.447,0,0,0-3.035-.682,3.815,3.815,0,0,0-2.845,3.85,5.037,5.037,0,0,0,1.515,3.6,15.035,15.035,0,0,0,3.9,2.688,1.022,1.022,0,0,0,.961,0c3.249-1.722,5.412-3.451,5.412-6.292a3.792,3.792,0,0,0-2.946-3.83A3.441,3.441,0,0,0,190.947,131.167Zm3.854,3.168c0,1.532-1.016,2.666-3.841,4.221-2.825-1.556-3.842-2.689-3.842-4.221a1.754,1.754,0,0,1,1.278-1.857,1.573,1.573,0,0,1,.361-.043,1.416,1.416,0,0,1,1.291.825,1.026,1.026,0,0,0,1.841-.036,1.331,1.331,0,0,1,1.572-.716A1.734,1.734,0,0,1,194.8,134.335Z" fill="url(#linear-gradient)"/>
    <path id="Path_26" data-name="Path 26" d="M165.932,115.62a1.025,1.025,0,0,0,0,2.051h3.023l-.564,3.416a1.025,1.025,0,0,0,.844,1.179,1.08,1.08,0,0,0,.169.014,1.026,1.026,0,0,0,1.01-.859l.62-3.75h2.474l-.564,3.416a1.024,1.024,0,0,0,.844,1.179,1.077,1.077,0,0,0,.168.014,1.026,1.026,0,0,0,1.011-.858l.62-3.751H179.7a1.025,1.025,0,0,0,0-2.051h-3.776l.414-2.5H179.7a1.026,1.026,0,0,0,0-2.051h-3.023l.565-3.416a1.026,1.026,0,0,0-2.024-.335l-.62,3.75h-2.474l.565-3.415a1.026,1.026,0,0,0-2.024-.335l-.62,3.75h-4.115a1.025,1.025,0,0,0,0,2.051h3.776l-.414,2.5Zm5.855-2.5h2.474l-.414,2.5h-2.474Z" fill="url(#linear-gradient)"/>
    <path id="Path_27" data-name="Path 27" d="M205.82,87.577a2.137,2.137,0,0,0-2.629,2.042,6.025,6.025,0,0,1-1.508,3.989l-2.825,3.2a1.024,1.024,0,0,0-.859-.467h-5.516a1.026,1.026,0,0,0-1.026,1.026v12.411a1.025,1.025,0,0,0,1.026,1.025H198a1.025,1.025,0,0,0,.932-.6,7.161,7.161,0,0,0,3.727,1.052h9.749a2.684,2.684,0,0,0,2.648-2.779c-.031-.658,0-9.493,0-9.689a2.654,2.654,0,0,0-2.648-2.652l-5.069-.015.209-.5a8,8,0,0,0-.422-7.047,2.088,2.088,0,0,0-1.308-1Zm-8.847,21.172h-3.465V98.389h3.465Zm15.434-10.566a.6.6,0,0,1,.6.6c0,.2,0,.725,0,1.443-.016,3.964-.026,7.718,0,8.343a.6.6,0,0,1-.6.63h-9.749a5.1,5.1,0,0,1-3.2-1.133l-.432-.35v-8l4.2-4.749a8.077,8.077,0,0,0,2.021-5.346.058.058,0,0,1,.106-.028,5.945,5.945,0,0,1,.313,5.231l-.809,1.917a1.025,1.025,0,0,0,.941,1.425Z" fill="url(#linear-gradient)"/>
  </g>
</svg>
