<svg xmlns="http://www.w3.org/2000/svg" xmlns:xlink="http://www.w3.org/1999/xlink" width="70" height="70" viewBox="0 0 70 70">
  <defs>
    <linearGradient id="linear-gradient" x1="0.5" x2="0.5" y2="1" gradientUnits="objectBoundingBox">
      <stop offset="0" stop-color="#fed65e"/>
      <stop offset="1" stop-color="#ff5a71"/>
    </linearGradient>
    <clipPath id="clip-path">
      <rect id="Rectangle_4" data-name="Rectangle 4" width="70" height="70" transform="translate(155 80)" fill="url(#linear-gradient)"/>
    </clipPath>
  </defs>
  <g id="icon" transform="translate(-155 -80)" clip-path="url(#clip-path)">
    <path id="Path_13" data-name="Path 13" d="M209.763,144.237v-10.57H207.43v4.666H172.519l-.02-2.343-2.333.02.068,8.227A5.771,5.771,0,0,0,176,150h28A5.769,5.769,0,0,0,209.763,144.237ZM204,147.667H176a3.438,3.438,0,0,1-3.431-3.441l-.029-3.559H207.43v3.57A3.434,3.434,0,0,1,204,147.667Z" fill="url(#linear-gradient)"/>
    <path id="Path_14" data-name="Path 14" d="M188.832,143h2.334v2.333h-2.334Z" fill="url(#linear-gradient)"/>
    <path id="Path_15" data-name="Path 15" d="M197,91.667V94H207.43v2.333h2.333v-5.9A5.77,5.77,0,0,0,204,84.667h-7V87h7a3.434,3.434,0,0,1,3.431,3.43v1.237Z" fill="url(#linear-gradient)"/>
    <path id="Path_16" data-name="Path 16" d="M162,84.667v14a4.666,4.666,0,0,0,4.667,4.666h7.816l6.706,4.471a1.167,1.167,0,0,0,1.811-.971v-3.5h7a4.666,4.666,0,0,0,4.667-4.666v-14A4.667,4.667,0,0,0,190,80H166.666A4.667,4.667,0,0,0,162,84.667Zm30.333,0v14A2.334,2.334,0,0,1,190,101h-8.167a1.166,1.166,0,0,0-1.166,1.167v2.487L175.48,101.2a1.175,1.175,0,0,0-.648-.2h-8.166a2.334,2.334,0,0,1-2.334-2.333v-14a2.334,2.334,0,0,1,2.334-2.333H190A2.334,2.334,0,0,1,192.332,84.667Z" fill="url(#linear-gradient)"/>
    <path id="Path_17" data-name="Path 17" d="M169,133.667a14.038,14.038,0,0,0,8.317-2.744l5.367,1.533a1.167,1.167,0,0,0,1.365-1.644l-2.488-4.962A14,14,0,1,0,169,133.667ZM169,108a11.667,11.667,0,0,1,10.229,17.276,1.166,1.166,0,0,0-.021,1.082l1.563,3.125-3.384-.966a1.166,1.166,0,0,0-1.05.216,11.532,11.532,0,0,1-7.337,2.6A11.666,11.666,0,1,1,169,108Z" fill="url(#linear-gradient)"/>
    <path id="Path_18" data-name="Path 18" d="M161.6,122.117l6.66,5.455a1.169,1.169,0,0,0,1.48,0l6.66-5.455a5.213,5.213,0,0,0,1.911-3.557,5.134,5.134,0,0,0-1.195-3.8A5.611,5.611,0,0,0,169,114.32a5.642,5.642,0,0,0-4.169-1.517,5.566,5.566,0,0,0-3.948,1.956,5.137,5.137,0,0,0-1.194,3.8A5.213,5.213,0,0,0,161.6,122.117Zm1.073-5.86a3.215,3.215,0,0,1,2.288-1.124h.186a3.252,3.252,0,0,1,2.243.884l.8.768a1.166,1.166,0,0,0,1.612,0l.8-.768a3.282,3.282,0,0,1,4.717.245,2.822,2.822,0,0,1,.661,2.086,2.889,2.889,0,0,1-1.067,1.97L169,125.158l-5.921-4.85a2.887,2.887,0,0,1-1.067-1.969,2.826,2.826,0,0,1,.661-2.086Z" fill="url(#linear-gradient)"/>
    <path id="Path_19" data-name="Path 19" d="M208.666,98.667a16.31,16.31,0,0,0-14.233,24.311l-3.113,5.439a1.166,1.166,0,0,0,1.3,1.71l6.787-1.7a16.325,16.325,0,1,0,9.263-29.763Zm0,30.333a13.875,13.875,0,0,1-8.326-2.765,1.162,1.162,0,0,0-.7-.233,1.086,1.086,0,0,0-.283.035L194.7,127.2l2.09-3.657a1.169,1.169,0,0,0-.021-1.2,13.988,13.988,0,1,1,11.9,6.65Z" fill="url(#linear-gradient)"/>
    <path id="Path_20" data-name="Path 20" d="M215.2,111.5h-1.867v-2.333a4.667,4.667,0,0,0-4.666-4.667,2.334,2.334,0,0,0-2.334,2.333v3.017l-1.65,1.65H200.5a1.167,1.167,0,0,0-1.167,1.167V122a1.168,1.168,0,0,0,1.167,1.167h14.7a2.8,2.8,0,0,0,2.8-2.8V114.3A2.8,2.8,0,0,0,215.2,111.5Zm-13.533,2.333H204v7h-2.333Zm14,6.534a.467.467,0,0,1-.467.466h-8.867V113.15l1.992-1.992a1.17,1.17,0,0,0,.342-.825v-3.5A2.334,2.334,0,0,1,211,109.167V111.5a1.167,1.167,0,1,0,0,2.333h4.2a.468.468,0,0,1,.467.467Z" fill="url(#linear-gradient)"/>
    <path id="Path_21" data-name="Path 21" d="M169,98.667h11.667a1.166,1.166,0,0,0,1.166-1.167V95.888l5.312,2.662a1.166,1.166,0,0,0,1.688-1.05V85.833a1.166,1.166,0,0,0-1.688-1.044l-5.312,2.656V85.833a1.166,1.166,0,0,0-1.166-1.167H169a1.167,1.167,0,0,0-1.167,1.167V97.5A1.167,1.167,0,0,0,169,98.667ZM170.166,87H179.5v2.333a1.167,1.167,0,0,0,1.688,1.044l5.312-2.656v7.891l-5.312-2.656A1.167,1.167,0,0,0,179.5,94v2.333h-9.333Z" fill="url(#linear-gradient)"/>
  </g>
</svg>
