<svg xmlns="http://www.w3.org/2000/svg" xmlns:xlink="http://www.w3.org/1999/xlink" width="70" height="70" viewBox="0 0 70 70">
  <defs>
    <linearGradient id="linear-gradient" x1="0.5" x2="0.5" y2="1" gradientUnits="objectBoundingBox">
      <stop offset="0" stop-color="#fed65e"/>
      <stop offset="1" stop-color="#ff5a71"/>
    </linearGradient>
  </defs>
  <g id="icon" transform="translate(-155 -80)">
    <path id="Path_4" data-name="Path 4" d="M209.194,85.744v-.1A5.652,5.652,0,0,0,203.548,80H169.677a5.652,5.652,0,0,0-5.645,5.645v5.9a34.875,34.875,0,0,0-8.116,31.358H155v5.645a5.652,5.652,0,0,0,5.645,5.646h.1a34.992,34.992,0,1,0,48.45-48.45Zm-2.259-.1v14.678h-6.774V85.645a3.387,3.387,0,1,1,6.774,0Zm-37.258-3.387h29.384a5.592,5.592,0,0,0-1.158,3.387v19.592a6.713,6.713,0,0,0-2.258-.4,6.781,6.781,0,0,0-6.774,6.774c0,.131.013.26.019.389a6.734,6.734,0,0,0-4.346,7.949A6.762,6.762,0,0,0,182.5,122.9H166.29V85.645A3.392,3.392,0,0,1,169.677,82.258Zm43.507,31.967a4.511,4.511,0,0,1-1.732,8.678v2.258a6.771,6.771,0,0,0,5.623-3,4.5,4.5,0,0,1,1.149,2.875,4.6,4.6,0,0,1-2.195,3.871,3.959,3.959,0,0,1-3.3.657l-1.151-.256-.206,1.162a4.5,4.5,0,0,1-2.631,3.33l-.673.3v2.357h-3.388v-9.033h1.129a3.387,3.387,0,1,0-3.387-3.387v1.129h-2.258v-1.129a3.387,3.387,0,1,0-3.387,3.387H197.9v9.033h-3.387V134.1l-.673-.3a4.5,4.5,0,0,1-2.631-3.33l-.206-1.162-1.152.256a3.963,3.963,0,0,1-3.3-.657,4.6,4.6,0,0,1-2.2-3.871,4.505,4.505,0,0,1,1.149-2.875,6.768,6.768,0,0,0,5.623,3V122.9a4.51,4.51,0,0,1-1.733-8.676,6.784,6.784,0,0,0,6.249,4.16v-2.258a4.516,4.516,0,1,1,4.516-4.516h2.258a4.516,4.516,0,1,1,4.516,4.516v2.258A6.783,6.783,0,0,0,213.184,114.225Zm-18.26,29h11.64a32.523,32.523,0,0,1-8.711,3.557A6.785,6.785,0,0,1,194.924,143.226Zm-2.666-2.258a1.129,1.129,0,0,1,0-2.258h18.065a1.119,1.119,0,0,1,1.1,1.015c-.495.428-1,.844-1.519,1.243Zm5.645-15.807h-1.129a1.129,1.129,0,1,1,1.129-1.129Zm4.516,11.291h-2.258v-9.033h2.258Zm2.258-11.291v-1.129a1.129,1.129,0,1,1,1.129,1.129ZM157.258,115a32.619,32.619,0,0,1,6.774-19.943V122.9h-5.8A32.846,32.846,0,0,1,157.258,115Zm0,13.548v-3.387h24.849a6.865,6.865,0,0,0,3.187,5.62,6.234,6.234,0,0,0,3.972,1.14.091.091,0,0,0,.007.014H160.645A3.391,3.391,0,0,1,157.258,128.548Zm6.212,5.646h27.173a6.8,6.8,0,0,0,1.614,1.327v.931a3.387,3.387,0,1,0,0,6.774h.3a9.038,9.038,0,0,0,2.394,4.141,32.765,32.765,0,0,1-31.481-13.173Zm49.731,3.883a3.378,3.378,0,0,0-2.878-1.625v-.931a6.748,6.748,0,0,0,2.991-3.6,6.221,6.221,0,0,0,3.972-1.14,6.845,6.845,0,0,0,3.2-5.809,6.762,6.762,0,0,0-2.445-5.021A6.733,6.733,0,0,0,213.69,112c.007-.129.02-.258.02-.389a6.773,6.773,0,0,0-12.42-3.741,6.843,6.843,0,0,0-1.129-1.3v-3.994h9.033V88.47a32.718,32.718,0,0,1,4.007,49.607Z" fill="url(#linear-gradient)"/>
    <path id="Path_5" data-name="Path 5" d="M179.839,116.129H182.1v2.258h-2.258Z" fill="url(#linear-gradient)"/>
    <path id="Path_6" data-name="Path 6" d="M168.548,116.129h9.033v2.258h-9.033Z" fill="url(#linear-gradient)"/>
    <path id="Path_7" data-name="Path 7" d="M168.548,111.613H182.1v2.258H168.548Z" fill="url(#linear-gradient)"/>
    <path id="Path_8" data-name="Path 8" d="M168.548,107.1H182.1v2.258H168.548Z" fill="url(#linear-gradient)"/>
    <path id="Path_9" data-name="Path 9" d="M168.548,102.581H182.1v2.258H168.548Z" fill="url(#linear-gradient)"/>
    <path id="Path_10" data-name="Path 10" d="M195.645,84.516h-27.1v15.807h27.1Zm-2.258,13.548H170.806V86.774h22.581Z" fill="url(#linear-gradient)"/>
  </g>
</svg>
