<svg width="203" height="31" viewBox="0 0 203 31" fill="none" xmlns="http://www.w3.org/2000/svg">
<path d="M16.2877 23.3556H7.16508V14.3616V7.36133L0.168457 14.3616V30.3559H16.2877L23.2844 23.3556H16.2877Z" fill="#FED65E"/>
<path d="M7.16508 0.360352L0.168457 7.36059H7.16508H23.3013L23.2844 23.3549V30.3551L30.281 23.3549L30.2979 0.360352H7.16508Z" fill="#FF5A71"/>
<path d="M64.0039 15.8395C64.0039 21.5076 60.0432 24.8694 54.3304 24.8694H49.769V7.12207H54.3304C60.1387 7.12207 64.0039 10.2919 64.0039 15.8395ZM61.9157 15.8395C61.9157 11.2768 58.9156 8.97063 54.3781 8.97063H51.7618V22.997H54.3781C58.843 22.997 61.9157 20.451 61.9157 15.8395Z" fill="white"/>
<path d="M78.5979 22.9965V24.8699H67.916V7.12158H78.3344V8.97113H69.9088V14.8312H77.9744V16.7046H69.9088V22.9975H78.5979V22.9965Z" fill="white"/>
<path d="M96.0431 7.12158L88.4578 25.1346H87.9775L80.416 7.12158H82.6246L88.2658 21.1231L93.8832 7.12158H96.0431Z" fill="white"/>
<path d="M109.44 22.9965V24.8699H98.7583V7.12158H109.177V8.97113H100.751V14.8312H108.817V16.7046H100.751V22.9975H109.44V22.9965Z" fill="white"/>
<path d="M123.07 22.9965V24.8699H113.709V7.12158H115.726V22.9965H123.07Z" fill="white"/>
<path d="M124.15 16.0061C124.15 10.362 128.158 6.80811 132.839 6.80811C137.52 6.80811 141.553 10.3629 141.553 16.0061C141.553 21.6264 137.521 25.1803 132.839 25.1803C128.158 25.1803 124.15 21.6264 124.15 16.0061ZM139.489 16.0061C139.489 11.4673 136.44 8.72929 132.839 8.72929C129.238 8.72929 126.214 11.4673 126.214 16.0061C126.214 20.5211 129.239 23.2352 132.839 23.2352C136.44 23.2352 139.489 20.5211 139.489 16.0061Z" fill="white"/>
<path d="M157.398 12.4772C157.398 16.0798 154.949 17.9055 150.676 17.9055H147.483V24.8699H145.467V7.12158H150.988C154.973 7.12158 157.398 9.1144 157.398 12.4772ZM155.333 12.4772C155.333 10.172 153.797 8.97113 150.941 8.97113H147.484V16.0559H150.677C153.773 16.0549 155.333 14.9028 155.333 12.4772Z" fill="white"/>
<path d="M161.173 7.12158H163.19V24.8699H161.173V7.12158Z" fill="white"/>
<path d="M166.983 16.0061C166.983 10.362 170.991 6.80811 175.672 6.80811C180.353 6.80811 184.386 10.3629 184.386 16.0061C184.386 21.6264 180.354 25.1803 175.672 25.1803C170.991 25.1803 166.983 21.6264 166.983 16.0061ZM182.322 16.0061C182.322 11.4673 179.273 8.72929 175.672 8.72929C172.071 8.72929 169.047 11.4673 169.047 16.0061C169.047 20.5211 172.072 23.2352 175.672 23.2352C179.274 23.2352 182.322 20.5211 182.322 16.0061Z" fill="white"/>
<path d="M202.169 7.12109V25.1341H201.665L190.311 11.5883V24.8694H188.294V6.85645H188.798L200.152 20.4261V7.12109H202.169Z" fill="white"/>
</svg>
